<?xml version="1.0" encoding="utf-8"?><svg version="1.1" id="Layer_1" xmlns="http://www.w3.org/2000/svg" xmlns:xlink="http://www.w3.org/1999/xlink" x="0px" y="0px" viewBox="0 0 115.28 122.88" style="enable-background:new 0 0 115.28 122.88" xml:space="preserve"><style type="text/css">.st0{fill-rule:evenodd;clip-rule:evenodd;}</style><g><path class="st0" d="M21.69,57h68.56V37.34H69.59c-2.17,0-5.19-1.17-6.62-2.6c-1.43-1.43-2.3-4.01-2.3-6.17V7.64l0,0H8.15 c-0.18,0-0.32,0.09-0.41,0.18C7.59,7.92,7.55,8.05,7.55,8.24v106.45c0,0.14,0.09,0.32,0.18,0.41c0.09,0.14,0.28,0.18,0.41,0.18 c22.78,0,58.09,0,81.51,0c0.18,0,0.17-0.09,0.27-0.18c0.14-0.09,0.33-0.28,0.33-0.41v-11.16H21.69c-4.14,0-7.56-3.4-7.56-7.56 V64.55C14.13,60.4,17.53,57,21.69,57L21.69,57z M36.81,70.11h6.36v11.13c0,2.34-0.21,4.12-0.62,5.34c-0.41,1.22-1.25,2.25-2.51,3.1 c-1.26,0.84-2.86,1.27-4.82,1.27c-2.07,0-3.67-0.28-4.81-0.84c-1.14-0.56-2.02-1.37-2.64-2.45c-0.62-1.07-0.99-2.41-1.1-3.99 l6.04-0.82c0.01,0.9,0.09,1.57,0.24,2c0.15,0.44,0.4,0.79,0.76,1.06c0.24,0.18,0.59,0.26,1.04,0.26c0.71,0,1.23-0.26,1.57-0.79 c0.33-0.52,0.5-1.41,0.5-2.66V70.11L36.81,70.11z M57.39,87.24h-7.18l-1.03,3.38h-6.47l7.72-20.5h6.93l7.68,20.5h-6.63L57.39,87.24 L57.39,87.24z M56.04,82.8l-2.24-7.37l-2.25,7.37H56.04L56.04,82.8z M61.6,70.11h6.62l4.62,14.76l4.55-14.76h6.43l-7.61,20.5h-6.86 L61.6,70.11L61.6,70.11z M95,87.24h-7.18l-1.03,3.38h-6.47l7.72-20.5h6.93l7.68,20.5h-6.63L95,87.24L95,87.24z M93.66,82.8 l-2.24-7.37l-2.25,7.37H93.66L93.66,82.8z M97.79,57h9.93c4.16,0,7.56,3.41,7.56,7.56v31.42c0,4.15-3.41,7.56-7.56,7.56h-9.93 v13.55c0,1.61-0.65,3.04-1.7,4.1c-1.06,1.06-2.49,1.7-4.1,1.7c-29.44,0-56.59,0-86.18,0c-1.61,0-3.04-0.64-4.1-1.7 c-1.06-1.06-1.7-2.49-1.7-4.1V5.85c0-1.61,0.65-3.04,1.7-4.1c1.06-1.06,2.53-1.7,4.1-1.7h58.72C64.66,0,64.8,0,64.94,0 c0.64,0,1.29,0.28,1.75,0.69h0.09c0.09,0.05,0.14,0.09,0.23,0.18l29.99,30.36c0.51,0.51,0.88,1.2,0.88,1.98 c0,0.23-0.05,0.41-0.09,0.65V57L97.79,57z M67.52,27.97V8.94l21.43,21.7H70.19c-0.74,0-1.38-0.32-1.89-0.78 C67.84,29.4,67.52,28.71,67.52,27.97L67.52,27.97z"/></g></svg>